<svg id="Calque_1" data-name="Calque 1" xmlns="http://www.w3.org/2000/svg" viewBox="0 0 478.73 66.34"><defs><style>.cls-1{fill:#fff;}</style></defs><path class="cls-1" d="M55.81.94" transform="translate(-0.64 -0.94)"/><path class="cls-1" d="M.64,69.06" transform="translate(-0.64 -0.94)"/><polygon class="cls-1" points="0 0.96 0 65.97 40.12 65.97 40.12 46.61 55.17 46.61 55.17 26.43 41.93 26.43 41.93 22.95 55.17 22.95 55.17 0.96 0 0.96"/><path class="cls-1" d="M108.55,66.91c-18.37.84-13.92,0-41.49,0V46H81V42.69H67.06v-15H81V24H67.06V1.91h41.49c9.47,2.09,14.73,6.9,15,14.34.24,5.62.28,9.73-4.17,15.58.76,2.89,2.18,2.71,3.91,6.13a21.44,21.44,0,0,1-1.39,20.6C119.73,61.75,118.84,64.67,108.55,66.91Z" transform="translate(-0.64 -0.94)"/><path class="cls-1" d="M177,66.72c-18.37.84-13.92,0-41.48,0V45.84H149.4V42.5H135.48v-15H149.4V23.85H135.48V1.71H177C186.43,3.8,191.69,8.6,192,16c.23,5.63.28,9.74-4.17,15.59.75,2.88,2.18,2.71,3.9,6.12a21.44,21.44,0,0,1-1.38,20.6C188.14,61.58,187.26,64.49,177,66.72Z" transform="translate(-0.64 -0.94)"/><path class="cls-1" d="M247.76,66.91c-49.78,0-42.56.5-43.74,0V1.9c1.14-.49,23.65-.06,43.86,0a11.6,11.6,0,0,1,7.26,2.62c18,14.64,19.71,42.75-.19,59.72A11.08,11.08,0,0,1,247.76,66.91Z" transform="translate(-0.64 -0.94)"/><polygon class="cls-1" points="280.51 0 280.51 65.97 334.8 66.34 334.8 43.41 319.21 43.41 319.21 37.01 334.8 37.01 334.8 27.27 319.77 27.27 319.77 20.02 334.8 20.02 334.8 0.72 280.51 0"/><path class="cls-1" d="M402.52,67.28c-15.87,0-42.31-.37-56.51,0V1.9c26.72,0,29-.19,36.2,0C412,10.1,405.59,34.1,396.41,48A33.32,33.32,0,0,1,398.35,51C401.75,57.1,403.43,64.58,402.52,67.28Z" transform="translate(-0.64 -0.94)"/><path class="cls-1" d="M414.5,34.85V66.59c10.86.32,19.49,0,52.06,0C471,64,479.26,59,479.36,51c.09-6.34-5.05-12.57-12.8-16.15H478l.28-33.26c-30.91,0-26.17.13-57.62.13-5.3,1.72-7.64,6.13-7.81,14.48,0,6.66,4.16,13.58,12,18.09Z" transform="translate(-0.64 -0.94)"/></svg>